<svg width="530" height="255" viewBox="0 0 530 255" fill="none" xmlns="http://www.w3.org/2000/svg">
<path fill-rule="evenodd" clip-rule="evenodd" d="M475.28 254.35V209.12H421.28V254.35H393.72V136.35H421.28V181.61H475.28V136.33H502.81V238.88C502.81 242.981 501.182 246.915 498.283 249.815C495.384 252.716 491.451 254.347 487.35 254.35H475.28Z" fill="white"/>
<path d="M509.46 109.61C509.431 109.58 509.392 109.562 509.35 109.56H501.09C501.054 109.567 501.022 109.587 501 109.617C500.977 109.647 500.967 109.683 500.97 109.72V111.86C500.97 111.91 500.97 111.94 500.97 111.95C500.97 111.96 500.97 111.95 500.97 111.95H501.04H503.73C503.73 111.95 503.81 111.95 503.81 112.04V120.04C503.803 120.059 503.803 120.081 503.81 120.1H503.88H506.39C506.39 120.1 506.45 120.1 506.46 120.1C506.5 120.081 506.531 120.049 506.55 120.01V111.93C506.55 111.93 506.55 111.93 506.61 111.93H509.27C509.297 111.936 509.324 111.936 509.35 111.93C509.365 111.888 509.365 111.842 509.35 111.8V109.66C509.356 109.634 509.356 109.606 509.35 109.58L509.46 109.61ZM521.74 109.53H519.44C519.384 109.524 519.327 109.536 519.278 109.565C519.23 109.593 519.192 109.637 519.17 109.69L516.77 115.27H516.7L514.28 109.69C514.262 109.637 514.226 109.592 514.179 109.563C514.132 109.534 514.075 109.522 514.02 109.53H511.69C511.668 109.526 511.646 109.528 511.625 109.535C511.604 109.542 511.585 109.554 511.57 109.569C511.554 109.585 511.542 109.604 511.535 109.625C511.529 109.646 511.527 109.668 511.53 109.69V120.07C511.527 120.092 511.529 120.114 511.535 120.135C511.542 120.156 511.554 120.175 511.57 120.191C511.585 120.206 511.604 120.218 511.625 120.225C511.646 120.232 511.668 120.233 511.69 120.23H513.87C513.99 120.23 514.04 120.23 514.04 120.07V114.57H514.11L515.83 118.57C515.855 118.627 515.895 118.676 515.946 118.712C515.998 118.747 516.058 118.767 516.12 118.77H517.28C517.345 118.774 517.41 118.756 517.464 118.72C517.518 118.684 517.559 118.631 517.58 118.57L519.3 114.57H519.37V120.07C519.367 120.092 519.369 120.114 519.375 120.135C519.382 120.156 519.394 120.175 519.41 120.191C519.425 120.206 519.444 120.218 519.465 120.225C519.486 120.232 519.508 120.233 519.53 120.23H521.72C521.742 120.233 521.764 120.232 521.785 120.225C521.806 120.218 521.825 120.206 521.841 120.191C521.856 120.175 521.868 120.156 521.875 120.135C521.882 120.114 521.884 120.092 521.88 120.07V109.69C521.884 109.668 521.882 109.646 521.875 109.625C521.868 109.604 521.856 109.585 521.841 109.569C521.825 109.554 521.806 109.542 521.785 109.535C521.764 109.528 521.742 109.526 521.72 109.53H521.74ZM521.74 109.53H519.44C519.384 109.524 519.327 109.536 519.278 109.565C519.23 109.593 519.192 109.637 519.17 109.69L516.77 115.27H516.7L514.28 109.69C514.262 109.637 514.226 109.592 514.179 109.563C514.132 109.534 514.075 109.522 514.02 109.53H511.69C511.668 109.526 511.646 109.528 511.625 109.535C511.604 109.542 511.585 109.554 511.57 109.569C511.554 109.585 511.542 109.604 511.535 109.625C511.529 109.646 511.527 109.668 511.53 109.69V120.07C511.527 120.092 511.529 120.114 511.535 120.135C511.542 120.156 511.554 120.175 511.57 120.191C511.585 120.206 511.604 120.218 511.625 120.225C511.646 120.232 511.668 120.233 511.69 120.23H513.87C513.99 120.23 514.04 120.23 514.04 120.07V114.57H514.11L515.83 118.57C515.855 118.627 515.895 118.676 515.946 118.712C515.998 118.747 516.058 118.767 516.12 118.77H517.28C517.345 118.774 517.41 118.756 517.464 118.72C517.518 118.684 517.559 118.631 517.58 118.57L519.3 114.57H519.37V120.07C519.367 120.092 519.369 120.114 519.375 120.135C519.382 120.156 519.394 120.175 519.41 120.191C519.425 120.206 519.444 120.218 519.465 120.225C519.486 120.232 519.508 120.233 519.53 120.23H521.72C521.742 120.233 521.764 120.232 521.785 120.225C521.806 120.218 521.825 120.206 521.841 120.191C521.856 120.175 521.868 120.156 521.875 120.135C521.882 120.114 521.884 120.092 521.88 120.07V109.69C521.884 109.668 521.882 109.646 521.875 109.625C521.868 109.604 521.856 109.585 521.841 109.569C521.825 109.554 521.806 109.542 521.785 109.535C521.764 109.528 521.742 109.526 521.72 109.53H521.74ZM509.46 109.61C509.431 109.58 509.392 109.562 509.35 109.56H501.09C501.054 109.567 501.022 109.587 501 109.617C500.977 109.647 500.967 109.683 500.97 109.72V111.86C500.97 111.91 500.97 111.94 500.97 111.95C500.97 111.96 500.97 111.95 500.97 111.95H501.04H503.73C503.73 111.95 503.81 111.95 503.81 112.04V120.04C503.803 120.059 503.803 120.081 503.81 120.1H503.88H506.39C506.39 120.1 506.45 120.1 506.46 120.1C506.5 120.081 506.531 120.049 506.55 120.01V111.93C506.55 111.93 506.55 111.93 506.61 111.93H509.27C509.297 111.936 509.324 111.936 509.35 111.93C509.365 111.888 509.365 111.842 509.35 111.8V109.66C509.356 109.634 509.356 109.606 509.35 109.58L509.46 109.61ZM509.46 109.61C509.431 109.58 509.392 109.562 509.35 109.56H501.09C501.054 109.567 501.022 109.587 501 109.617C500.977 109.647 500.967 109.683 500.97 109.72V111.86C500.97 111.91 500.97 111.94 500.97 111.95C500.97 111.96 500.97 111.95 500.97 111.95H501.04H503.73C503.73 111.95 503.81 111.95 503.81 112.04V120.04C503.803 120.059 503.803 120.081 503.81 120.1H503.88H506.39C506.39 120.1 506.45 120.1 506.46 120.1C506.5 120.081 506.531 120.049 506.55 120.01V111.93C506.55 111.93 506.55 111.93 506.61 111.93H509.27C509.297 111.936 509.324 111.936 509.35 111.93C509.365 111.888 509.365 111.842 509.35 111.8V109.66C509.356 109.634 509.356 109.606 509.35 109.58L509.46 109.61ZM521.74 109.53H519.44C519.384 109.524 519.327 109.536 519.278 109.565C519.23 109.593 519.192 109.637 519.17 109.69L516.77 115.27H516.7L514.28 109.69C514.262 109.637 514.226 109.592 514.179 109.563C514.132 109.534 514.075 109.522 514.02 109.53H511.69C511.668 109.526 511.646 109.528 511.625 109.535C511.604 109.542 511.585 109.554 511.57 109.569C511.554 109.585 511.542 109.604 511.535 109.625C511.529 109.646 511.527 109.668 511.53 109.69V120.07C511.527 120.092 511.529 120.114 511.535 120.135C511.542 120.156 511.554 120.175 511.57 120.191C511.585 120.206 511.604 120.218 511.625 120.225C511.646 120.232 511.668 120.233 511.69 120.23H513.87C513.99 120.23 514.04 120.23 514.04 120.07V114.57H514.11L515.83 118.57C515.855 118.627 515.895 118.676 515.946 118.712C515.998 118.747 516.058 118.767 516.12 118.77H517.28C517.345 118.774 517.41 118.756 517.464 118.72C517.518 118.684 517.559 118.631 517.58 118.57L519.3 114.57H519.37V120.07C519.367 120.092 519.369 120.114 519.375 120.135C519.382 120.156 519.394 120.175 519.41 120.191C519.425 120.206 519.444 120.218 519.465 120.225C519.486 120.232 519.508 120.233 519.53 120.23H521.72C521.742 120.233 521.764 120.232 521.785 120.225C521.806 120.218 521.825 120.206 521.841 120.191C521.856 120.175 521.868 120.156 521.875 120.135C521.882 120.114 521.884 120.092 521.88 120.07V109.69C521.884 109.668 521.882 109.646 521.875 109.625C521.868 109.604 521.856 109.585 521.841 109.569C521.825 109.554 521.806 109.542 521.785 109.535C521.764 109.528 521.742 109.526 521.72 109.53H521.74ZM521.74 109.53H519.44C519.384 109.524 519.327 109.536 519.278 109.565C519.23 109.593 519.192 109.637 519.17 109.69L516.77 115.27H516.7L514.28 109.69C514.262 109.637 514.226 109.592 514.179 109.563C514.132 109.534 514.075 109.522 514.02 109.53H511.69C511.668 109.526 511.646 109.528 511.625 109.535C511.604 109.542 511.585 109.554 511.57 109.569C511.554 109.585 511.542 109.604 511.535 109.625C511.529 109.646 511.527 109.668 511.53 109.69V120.07C511.527 120.092 511.529 120.114 511.535 120.135C511.542 120.156 511.554 120.175 511.57 120.191C511.585 120.206 511.604 120.218 511.625 120.225C511.646 120.232 511.668 120.233 511.69 120.23H513.87C513.99 120.23 514.04 120.23 514.04 120.07V114.57H514.11L515.83 118.57C515.855 118.627 515.895 118.676 515.946 118.712C515.998 118.747 516.058 118.767 516.12 118.77H517.28C517.345 118.774 517.41 118.756 517.464 118.72C517.518 118.684 517.559 118.631 517.58 118.57L519.3 114.57H519.37V120.07C519.367 120.092 519.369 120.114 519.375 120.135C519.382 120.156 519.394 120.175 519.41 120.191C519.425 120.206 519.444 120.218 519.465 120.225C519.486 120.232 519.508 120.233 519.53 120.23H521.72C521.742 120.233 521.764 120.232 521.785 120.225C521.806 120.218 521.825 120.206 521.841 120.191C521.856 120.175 521.868 120.156 521.875 120.135C521.882 120.114 521.884 120.092 521.88 120.07V109.69C521.884 109.668 521.882 109.646 521.875 109.625C521.868 109.604 521.856 109.585 521.841 109.569C521.825 109.554 521.806 109.542 521.785 109.535C521.764 109.528 521.742 109.526 521.72 109.53H521.74ZM509.46 109.61C509.431 109.58 509.392 109.562 509.35 109.56H501.09C501.054 109.567 501.022 109.587 501 109.617C500.977 109.647 500.967 109.683 500.97 109.72V111.86C500.97 111.91 500.97 111.94 500.97 111.95C500.97 111.96 500.97 111.95 500.97 111.95H501.04H503.73C503.73 111.95 503.81 111.95 503.81 112.04V120.04C503.803 120.059 503.803 120.081 503.81 120.1H503.88H506.39C506.39 120.1 506.45 120.1 506.46 120.1C506.5 120.081 506.531 120.049 506.55 120.01V111.93C506.55 111.93 506.55 111.93 506.61 111.93H509.27C509.297 111.936 509.324 111.936 509.35 111.93C509.365 111.888 509.365 111.842 509.35 111.8V109.66C509.356 109.634 509.356 109.606 509.35 109.58L509.46 109.61ZM509.46 109.61C509.431 109.58 509.392 109.562 509.35 109.56H501.09C501.054 109.567 501.022 109.587 501 109.617C500.977 109.647 500.967 109.683 500.97 109.72V111.86C500.97 111.91 500.97 111.94 500.97 111.95C500.97 111.96 500.97 111.95 500.97 111.95H501.04H503.73C503.73 111.95 503.81 111.95 503.81 112.04V120.04C503.803 120.059 503.803 120.081 503.81 120.1H503.88H506.39C506.39 120.1 506.45 120.1 506.46 120.1C506.5 120.081 506.531 120.049 506.55 120.01V111.93C506.55 111.93 506.55 111.93 506.61 111.93H509.27C509.297 111.936 509.324 111.936 509.35 111.93C509.365 111.888 509.365 111.842 509.35 111.8V109.66C509.356 109.634 509.356 109.606 509.35 109.58L509.46 109.61ZM521.76 109.56H519.46C519.404 109.554 519.347 109.566 519.298 109.595C519.25 109.623 519.212 109.667 519.19 109.72L516.79 115.3H516.72L514.28 109.69C514.262 109.637 514.226 109.592 514.179 109.563C514.132 109.534 514.075 109.522 514.02 109.53H511.69C511.668 109.526 511.646 109.528 511.625 109.535C511.604 109.542 511.585 109.554 511.57 109.569C511.554 109.585 511.542 109.604 511.535 109.625C511.529 109.646 511.527 109.668 511.53 109.69V120.07C511.527 120.092 511.529 120.114 511.535 120.135C511.542 120.156 511.554 120.175 511.57 120.191C511.585 120.206 511.604 120.218 511.625 120.225C511.646 120.232 511.668 120.233 511.69 120.23H513.87C513.99 120.23 514.04 120.23 514.04 120.07V114.57H514.11L515.83 118.57C515.855 118.627 515.895 118.676 515.946 118.712C515.998 118.747 516.058 118.767 516.12 118.77H517.28C517.345 118.774 517.41 118.756 517.464 118.72C517.518 118.684 517.559 118.631 517.58 118.57L519.3 114.57H519.37V120.07C519.367 120.092 519.369 120.114 519.375 120.135C519.382 120.156 519.394 120.175 519.41 120.191C519.425 120.206 519.444 120.218 519.465 120.225C519.486 120.232 519.508 120.233 519.53 120.23H521.72C521.742 120.233 521.764 120.232 521.785 120.225C521.806 120.218 521.825 120.206 521.841 120.191C521.856 120.175 521.868 120.156 521.875 120.135C521.882 120.114 521.884 120.092 521.88 120.07V109.69C521.884 109.668 521.882 109.646 521.875 109.625C521.868 109.604 521.856 109.585 521.841 109.569C521.825 109.554 521.806 109.542 521.785 109.535C521.764 109.528 521.742 109.526 521.72 109.53L521.76 109.56ZM511.43 129.45C508.556 129.452 505.746 128.601 503.355 127.006C500.964 125.411 499.1 123.142 497.999 120.487C496.898 117.832 496.609 114.911 497.168 112.091C497.728 109.272 499.111 106.682 501.142 104.649C503.174 102.616 505.763 101.231 508.582 100.67C511.401 100.108 514.323 100.396 516.978 101.495C519.634 102.594 521.904 104.457 523.501 106.846C525.098 109.236 525.95 112.046 525.95 114.92C525.951 116.828 525.577 118.717 524.848 120.48C524.119 122.242 523.049 123.844 521.701 125.194C520.352 126.543 518.751 127.613 516.989 128.344C515.227 129.074 513.338 129.45 511.43 129.45ZM511.43 96.9299C507.87 96.9299 504.39 97.9856 501.43 99.9635C498.47 101.941 496.163 104.753 494.8 108.042C493.438 111.331 493.082 114.95 493.776 118.442C494.471 121.933 496.185 125.14 498.702 127.658C501.22 130.175 504.427 131.89 507.919 132.584C511.41 133.279 515.029 132.922 518.319 131.56C521.608 130.197 524.419 127.89 526.397 124.93C528.375 121.97 529.43 118.49 529.43 114.93C529.43 110.156 527.534 105.578 524.158 102.202C520.782 98.8263 516.204 96.9299 511.43 96.9299ZM509.43 109.62C509.402 109.59 509.362 109.572 509.32 109.57H501.06C501.024 109.577 500.992 109.597 500.97 109.627C500.948 109.657 500.937 109.693 500.94 109.73V111.87C500.94 111.92 500.94 111.95 500.94 111.96C500.94 111.97 500.94 111.96 500.94 111.96H501.01H503.7C503.7 111.96 503.78 111.96 503.78 112.05V120.05C503.773 120.069 503.773 120.091 503.78 120.11H503.85H506.36C506.36 120.11 506.42 120.11 506.43 120.11C506.47 120.091 506.501 120.059 506.52 120.02V111.94C506.52 111.94 506.52 111.94 506.58 111.94H509.24C509.267 111.946 509.294 111.946 509.32 111.94C509.335 111.898 509.335 111.852 509.32 111.81V109.67C509.326 109.644 509.326 109.616 509.32 109.59L509.43 109.62ZM521.73 109.57H519.43C519.374 109.564 519.317 109.576 519.268 109.605C519.22 109.633 519.182 109.677 519.16 109.73L516.76 115.31H516.69L514.28 109.69C514.262 109.637 514.226 109.592 514.179 109.563C514.132 109.534 514.075 109.522 514.02 109.53H511.69C511.668 109.526 511.646 109.528 511.625 109.535C511.604 109.542 511.585 109.554 511.57 109.569C511.554 109.585 511.542 109.604 511.535 109.625C511.529 109.646 511.527 109.668 511.53 109.69V120.07C511.527 120.092 511.529 120.114 511.535 120.135C511.542 120.156 511.554 120.175 511.57 120.191C511.585 120.206 511.604 120.218 511.625 120.225C511.646 120.232 511.668 120.233 511.69 120.23H513.87C513.99 120.23 514.04 120.23 514.04 120.07V114.57H514.11L515.83 118.57C515.855 118.627 515.895 118.676 515.946 118.712C515.998 118.747 516.058 118.767 516.12 118.77H517.28C517.345 118.774 517.41 118.756 517.464 118.72C517.518 118.684 517.559 118.631 517.58 118.57L519.3 114.57H519.37V120.07C519.367 120.092 519.369 120.114 519.375 120.135C519.382 120.156 519.394 120.175 519.41 120.191C519.425 120.206 519.444 120.218 519.465 120.225C519.486 120.232 519.508 120.233 519.53 120.23H521.72C521.742 120.233 521.764 120.232 521.785 120.225C521.806 120.218 521.825 120.206 521.841 120.191C521.856 120.175 521.868 120.156 521.875 120.135C521.882 120.114 521.884 120.092 521.88 120.07V109.69C521.884 109.668 521.882 109.646 521.875 109.625C521.868 109.604 521.856 109.585 521.841 109.569C521.825 109.554 521.806 109.542 521.785 109.535C521.764 109.528 521.742 109.526 521.72 109.53L521.73 109.57ZM521.73 109.57H519.43C519.374 109.564 519.317 109.576 519.268 109.605C519.22 109.633 519.182 109.677 519.16 109.73L516.76 115.31H516.69L514.28 109.69C514.262 109.637 514.226 109.592 514.179 109.563C514.132 109.534 514.075 109.522 514.02 109.53H511.69C511.668 109.526 511.646 109.528 511.625 109.535C511.604 109.542 511.585 109.554 511.57 109.569C511.554 109.585 511.542 109.604 511.535 109.625C511.529 109.646 511.527 109.668 511.53 109.69V120.07C511.527 120.092 511.529 120.114 511.535 120.135C511.542 120.156 511.554 120.175 511.57 120.191C511.585 120.206 511.604 120.218 511.625 120.225C511.646 120.232 511.668 120.233 511.69 120.23H513.87C513.99 120.23 514.04 120.23 514.04 120.07V114.57H514.11L515.83 118.57C515.855 118.627 515.895 118.676 515.946 118.712C515.998 118.747 516.058 118.767 516.12 118.77H517.28C517.345 118.774 517.41 118.756 517.464 118.72C517.518 118.684 517.559 118.631 517.58 118.57L519.3 114.57H519.37V120.07C519.367 120.092 519.369 120.114 519.375 120.135C519.382 120.156 519.394 120.175 519.41 120.191C519.425 120.206 519.444 120.218 519.465 120.225C519.486 120.232 519.508 120.233 519.53 120.23H521.72C521.742 120.233 521.764 120.232 521.785 120.225C521.806 120.218 521.825 120.206 521.841 120.191C521.856 120.175 521.868 120.156 521.875 120.135C521.882 120.114 521.884 120.092 521.88 120.07V109.69C521.884 109.668 521.882 109.646 521.875 109.625C521.868 109.604 521.856 109.585 521.841 109.569C521.825 109.554 521.806 109.542 521.785 109.535C521.764 109.528 521.742 109.526 521.72 109.53L521.73 109.57ZM509.45 109.65C509.421 109.62 509.382 109.602 509.34 109.6H501.08C501.044 109.607 501.012 109.627 500.99 109.657C500.968 109.687 500.957 109.723 500.96 109.76V111.9C500.96 111.95 500.96 111.98 500.96 111.99C500.96 112 500.96 111.99 500.96 111.99H501.03H503.72C503.72 111.99 503.8 111.99 503.8 112.08V120.08C503.793 120.099 503.793 120.121 503.8 120.14H503.87H506.38C506.38 120.14 506.44 120.14 506.45 120.14C506.49 120.121 506.521 120.089 506.54 120.05V111.97C506.54 111.97 506.54 111.97 506.6 111.97H509.26C509.287 111.976 509.314 111.976 509.34 111.97C509.355 111.928 509.355 111.882 509.34 111.84V109.7C509.346 109.674 509.346 109.646 509.34 109.62L509.45 109.65ZM509.45 109.65C509.421 109.62 509.382 109.602 509.34 109.6H501.08C501.044 109.607 501.012 109.627 500.99 109.657C500.968 109.687 500.957 109.723 500.96 109.76V111.9C500.96 111.95 500.96 111.98 500.96 111.99C500.96 112 500.96 111.99 500.96 111.99H501.03H503.72C503.72 111.99 503.8 111.99 503.8 112.08V120.08C503.793 120.099 503.793 120.121 503.8 120.14H503.87H506.38C506.38 120.14 506.44 120.14 506.45 120.14C506.49 120.121 506.521 120.089 506.54 120.05V111.97C506.54 111.97 506.54 111.97 506.6 111.97H509.26C509.287 111.976 509.314 111.976 509.34 111.97C509.355 111.928 509.355 111.882 509.34 111.84V109.7C509.346 109.674 509.346 109.646 509.34 109.62L509.45 109.65ZM521.73 109.57H519.43C519.374 109.564 519.317 109.576 519.268 109.605C519.22 109.633 519.182 109.677 519.16 109.73L516.76 115.31H516.69L514.28 109.69C514.262 109.637 514.226 109.592 514.179 109.563C514.132 109.534 514.075 109.522 514.02 109.53H511.69C511.668 109.526 511.646 109.528 511.625 109.535C511.604 109.542 511.585 109.554 511.57 109.569C511.554 109.585 511.542 109.604 511.535 109.625C511.529 109.646 511.527 109.668 511.53 109.69V120.07C511.527 120.092 511.529 120.114 511.535 120.135C511.542 120.156 511.554 120.175 511.57 120.191C511.585 120.206 511.604 120.218 511.625 120.225C511.646 120.232 511.668 120.233 511.69 120.23H513.87C513.99 120.23 514.04 120.23 514.04 120.07V114.57H514.11L515.83 118.57C515.855 118.627 515.895 118.676 515.946 118.712C515.998 118.747 516.058 118.767 516.12 118.77H517.28C517.345 118.774 517.41 118.756 517.464 118.72C517.518 118.684 517.559 118.631 517.58 118.57L519.3 114.57H519.37V120.07C519.367 120.092 519.369 120.114 519.375 120.135C519.382 120.156 519.394 120.175 519.41 120.191C519.425 120.206 519.444 120.218 519.465 120.225C519.486 120.232 519.508 120.233 519.53 120.23H521.72C521.742 120.233 521.764 120.232 521.785 120.225C521.806 120.218 521.825 120.206 521.841 120.191C521.856 120.175 521.868 120.156 521.875 120.135C521.882 120.114 521.884 120.092 521.88 120.07V109.69C521.884 109.668 521.882 109.646 521.875 109.625C521.868 109.604 521.856 109.585 521.841 109.569C521.825 109.554 521.806 109.542 521.785 109.535C521.764 109.528 521.742 109.526 521.72 109.53L521.73 109.57ZM521.73 109.57H519.43C519.374 109.564 519.317 109.576 519.268 109.605C519.22 109.633 519.182 109.677 519.16 109.73L516.76 115.31H516.69L514.28 109.69C514.262 109.637 514.226 109.592 514.179 109.563C514.132 109.534 514.075 109.522 514.02 109.53H511.69C511.668 109.526 511.646 109.528 511.625 109.535C511.604 109.542 511.585 109.554 511.57 109.569C511.554 109.585 511.542 109.604 511.535 109.625C511.529 109.646 511.527 109.668 511.53 109.69V120.07C511.527 120.092 511.529 120.114 511.535 120.135C511.542 120.156 511.554 120.175 511.57 120.191C511.585 120.206 511.604 120.218 511.625 120.225C511.646 120.232 511.668 120.233 511.69 120.23H513.87C513.99 120.23 514.04 120.23 514.04 120.07V114.57H514.11L515.83 118.57C515.855 118.627 515.895 118.676 515.946 118.712C515.998 118.747 516.058 118.767 516.12 118.77H517.28C517.345 118.774 517.41 118.756 517.464 118.72C517.518 118.684 517.559 118.631 517.58 118.57L519.3 114.57H519.37V120.07C519.367 120.092 519.369 120.114 519.375 120.135C519.382 120.156 519.394 120.175 519.41 120.191C519.425 120.206 519.444 120.218 519.465 120.225C519.486 120.232 519.508 120.233 519.53 120.23H521.72C521.742 120.233 521.764 120.232 521.785 120.225C521.806 120.218 521.825 120.206 521.841 120.191C521.856 120.175 521.868 120.156 521.875 120.135C521.882 120.114 521.884 120.092 521.88 120.07V109.69C521.884 109.668 521.882 109.646 521.875 109.625C521.868 109.604 521.856 109.585 521.841 109.569C521.825 109.554 521.806 109.542 521.785 109.535C521.764 109.528 521.742 109.526 521.72 109.53L521.73 109.57ZM509.45 109.65C509.421 109.62 509.382 109.602 509.34 109.6H501.08C501.044 109.607 501.012 109.627 500.99 109.657C500.968 109.687 500.957 109.723 500.96 109.76V111.9C500.96 111.95 500.96 111.98 500.96 111.99C500.96 112 500.96 111.99 500.96 111.99H501.03H503.72C503.72 111.99 503.8 111.99 503.8 112.08V120.08C503.793 120.099 503.793 120.121 503.8 120.14H503.87H506.38C506.38 120.14 506.44 120.14 506.45 120.14C506.49 120.121 506.521 120.089 506.54 120.05V111.97C506.54 111.97 506.54 111.97 506.6 111.97H509.26C509.287 111.976 509.314 111.976 509.34 111.97C509.355 111.928 509.355 111.882 509.34 111.84V109.7C509.346 109.674 509.346 109.646 509.34 109.62L509.45 109.65ZM509.45 109.65C509.421 109.62 509.382 109.602 509.34 109.6H501.08C501.044 109.607 501.012 109.627 500.99 109.657C500.968 109.687 500.957 109.723 500.96 109.76V111.9C500.96 111.95 500.96 111.98 500.96 111.99C500.96 112 500.96 111.99 500.96 111.99H501.03H503.72C503.72 111.99 503.8 111.99 503.8 112.08V120.08C503.793 120.099 503.793 120.121 503.8 120.14H503.87H506.38C506.38 120.14 506.44 120.14 506.45 120.14C506.49 120.121 506.521 120.089 506.54 120.05V111.97C506.54 111.97 506.54 111.97 506.6 111.97H509.26C509.287 111.976 509.314 111.976 509.34 111.97C509.355 111.928 509.355 111.882 509.34 111.84V109.7C509.346 109.674 509.346 109.646 509.34 109.62L509.45 109.65ZM521.73 109.57H519.43C519.374 109.564 519.317 109.576 519.268 109.605C519.22 109.633 519.182 109.677 519.16 109.73L516.76 115.31H516.69L514.28 109.69C514.262 109.637 514.226 109.592 514.179 109.563C514.132 109.534 514.075 109.522 514.02 109.53H511.69C511.668 109.526 511.646 109.528 511.625 109.535C511.604 109.542 511.585 109.554 511.57 109.569C511.554 109.585 511.542 109.604 511.535 109.625C511.529 109.646 511.527 109.668 511.53 109.69V120.07C511.527 120.092 511.529 120.114 511.535 120.135C511.542 120.156 511.554 120.175 511.57 120.191C511.585 120.206 511.604 120.218 511.625 120.225C511.646 120.232 511.668 120.233 511.69 120.23H513.87C513.99 120.23 514.04 120.23 514.04 120.07V114.57H514.11L515.83 118.57C515.855 118.627 515.895 118.676 515.946 118.712C515.998 118.747 516.058 118.767 516.12 118.77H517.28C517.345 118.774 517.41 118.756 517.464 118.72C517.518 118.684 517.559 118.631 517.58 118.57L519.3 114.57H519.37V120.07C519.367 120.092 519.369 120.114 519.375 120.135C519.382 120.156 519.394 120.175 519.41 120.191C519.425 120.206 519.444 120.218 519.465 120.225C519.486 120.232 519.508 120.233 519.53 120.23H521.72C521.742 120.233 521.764 120.232 521.785 120.225C521.806 120.218 521.825 120.206 521.841 120.191C521.856 120.175 521.868 120.156 521.875 120.135C521.882 120.114 521.884 120.092 521.88 120.07V109.69C521.884 109.668 521.882 109.646 521.875 109.625C521.868 109.604 521.856 109.585 521.841 109.569C521.825 109.554 521.806 109.542 521.785 109.535C521.764 109.528 521.742 109.526 521.72 109.53L521.73 109.57ZM509.45 109.65C509.421 109.62 509.382 109.602 509.34 109.6H501.08C501.044 109.607 501.012 109.627 500.99 109.657C500.968 109.687 500.957 109.723 500.96 109.76V111.9C500.96 111.95 500.96 111.98 500.96 111.99C500.96 112 500.96 111.99 500.96 111.99H501.03H503.72C503.72 111.99 503.8 111.99 503.8 112.08V120.08C503.793 120.099 503.793 120.121 503.8 120.14H503.87H506.38C506.38 120.14 506.44 120.14 506.45 120.14C506.49 120.121 506.521 120.089 506.54 120.05V111.97C506.54 111.97 506.54 111.97 506.6 111.97H509.26C509.287 111.976 509.314 111.976 509.34 111.97C509.355 111.928 509.355 111.882 509.34 111.84V109.7C509.346 109.674 509.346 109.646 509.34 109.62L509.45 109.65ZM521.73 109.57H519.43C519.374 109.564 519.317 109.576 519.268 109.605C519.22 109.633 519.182 109.677 519.16 109.73L516.76 115.31H516.69L514.28 109.69C514.262 109.637 514.226 109.592 514.179 109.563C514.132 109.534 514.075 109.522 514.02 109.53H511.69C511.668 109.526 511.646 109.528 511.625 109.535C511.604 109.542 511.585 109.554 511.57 109.569C511.554 109.585 511.542 109.604 511.535 109.625C511.529 109.646 511.527 109.668 511.53 109.69V120.07C511.527 120.092 511.529 120.114 511.535 120.135C511.542 120.156 511.554 120.175 511.57 120.191C511.585 120.206 511.604 120.218 511.625 120.225C511.646 120.232 511.668 120.233 511.69 120.23H513.87C513.99 120.23 514.04 120.23 514.04 120.07V114.57H514.11L515.83 118.57C515.855 118.627 515.895 118.676 515.946 118.712C515.998 118.747 516.058 118.767 516.12 118.77H517.28C517.345 118.774 517.41 118.756 517.464 118.72C517.518 118.684 517.559 118.631 517.58 118.57L519.3 114.57H519.37V120.07C519.367 120.092 519.369 120.114 519.375 120.135C519.382 120.156 519.394 120.175 519.41 120.191C519.425 120.206 519.444 120.218 519.465 120.225C519.486 120.232 519.508 120.233 519.53 120.23H521.72C521.742 120.233 521.764 120.232 521.785 120.225C521.806 120.218 521.825 120.206 521.841 120.191C521.856 120.175 521.868 120.156 521.875 120.135C521.882 120.114 521.884 120.092 521.88 120.07V109.69C521.884 109.668 521.882 109.646 521.875 109.625C521.868 109.604 521.856 109.585 521.841 109.569C521.825 109.554 521.806 109.542 521.785 109.535C521.764 109.528 521.742 109.526 521.72 109.53L521.73 109.57Z" fill="white"/>
<path fill-rule="evenodd" clip-rule="evenodd" d="M344.57 181.71H313.45C301.36 181.71 300.06 175.27 300.06 172.5C300.06 163.98 310.14 163.98 313.45 163.98H384.93V136.33H328H332H314.21C286.3 136.33 273.21 147.75 273.1 172.24C273.1 197.38 286.1 209.08 314.1 209.08H344.65C356.3 209.08 358.04 214.42 358.04 217.6C358.04 220.38 356.73 226.84 344.65 226.84H267.41C264.51 234.75 255.82 246.19 241.49 254.3H344.7C372.62 254.3 385.62 242.61 385.62 217.55C385.49 193.07 372.45 181.66 344.57 181.66V181.71Z" fill="white"/>
<path d="M198.35 126.12V6.7C198.345 4.92812 197.64 3.23002 196.389 1.97523C195.138 0.72045 193.442 0.0105392 191.67 0H126.38L100.38 37.75H173.3L124.68 113.23H156.1C123.1 185.91 86.8001 259.12 65.8401 243.64C58.2601 238.04 63.4201 236.09 57.8401 230.82C57.3101 230.32 52.1901 238 51.6801 237.5C51.1701 237 55.2901 228.35 54.8101 227.87C26.1501 199.26 10.8101 173.92 10.8101 173.98C10.8101 174.39 10.8901 174.79 10.9501 175.2C11.0101 175.61 11.05 176.12 11.11 176.57C11.11 176.84 11.1901 177.1 11.2201 177.37C11.2801 177.82 11.3501 178.27 11.4301 178.73C11.5301 179.44 11.6601 180.16 11.7901 180.86C11.8701 181.28 11.9401 181.69 12.0301 182.11C12.1201 182.53 12.2001 182.94 12.2901 183.35C12.8901 186.17 16.2 188.94 17.08 191.65C17.21 192.07 17.3501 192.48 17.4901 192.9C17.4859 192.937 17.4859 192.973 17.4901 193.01L18.0201 194.51C18.22 195.03 18.4101 195.56 18.6201 196.09C18.7101 196.33 18.8001 196.58 18.9001 196.82C19.1101 197.32 19.3101 197.82 19.5101 198.32C19.7101 198.82 19.9401 199.32 20.1601 199.81C20.2601 200.02 20.3501 200.24 20.4501 200.44C20.5501 200.64 20.6301 200.86 20.7301 201.06C21.0101 201.65 21.2801 202.23 21.5701 202.81C21.8601 203.39 22.2201 204.11 22.5701 204.75C22.9201 205.39 23.2501 206.03 23.5701 206.65C23.8901 207.27 24.3501 208.02 24.7501 208.65C25.1501 209.28 25.5501 209.98 25.9601 210.65C26.3701 211.32 26.8901 212.1 27.3701 212.81C27.8501 213.52 28.2901 214.16 28.7601 214.81C29.2301 215.46 29.7601 216.13 30.2201 216.81C30.6801 217.49 31.2201 218.1 31.7301 218.74C32.7301 220.01 33.8101 221.26 34.9001 222.45C35.4501 223.06 36.0001 223.65 36.5701 224.24C38.0401 225.78 51.4901 231.07 53.3501 232.74C53.5801 232.95 51.6201 236.86 51.8401 237.06C52.0601 237.26 54.4601 233.72 54.6601 233.89C55.4801 234.6 53.25 233.44 56.2701 235.36L57.6501 236.24C59.5101 237.39 57.1701 240.12 59.1201 241.11C59.9701 241.55 60.8301 241.97 61.7001 242.39C64.3044 243.635 66.9751 244.737 69.7001 245.69L71.2701 246.24C72.32 246.58 73.3901 246.91 74.4501 247.24C74.9301 247.39 75.4001 247.52 75.8801 247.64L76.1901 247.73L77.4201 248.04L78.0701 248.2C78.4901 248.3 78.9 248.41 79.33 248.5C80.42 248.74 81.5201 248.98 82.6301 249.17L83.7801 249.38C84.1301 249.44 84.4701 249.5 84.7801 249.54C84.961 249.581 85.1449 249.608 85.33 249.62C85.73 249.7 86.14 249.75 86.55 249.8C86.9601 249.85 87.23 249.9 87.55 249.93C88.1301 250.01 88.7001 250.08 89.2901 250.13C89.8801 250.18 90.4501 250.25 91.0301 250.29H91.1201L92.3501 250.38H92.9401C93.3901 250.38 93.8201 250.44 94.2701 250.45H95.0101H96.0101C96.6601 250.45 97.3001 250.45 97.9501 250.45H100.58C102.92 250.45 119.27 250.26 121.58 250.03L123.09 249.86C123.39 249.86 123.69 249.79 123.98 249.74C124.27 249.69 124.64 249.67 124.98 249.61L126.28 249.42L127.19 249.27C127.76 249.18 130.48 247.6 131.04 247.49C145.96 242.85 154.28 236.87 154.2 236.75C119.94 185.97 155.48 146.13 175.41 137.82C182.589 134.285 190.366 132.124 198.34 131.45L198.35 126.12ZM198.28 21.82V6.73C198.281 5.85408 198.11 4.98649 197.776 4.17674C197.442 3.367 196.952 2.63096 196.334 2.01067C195.715 1.39037 194.981 0.89795 194.172 0.561539C193.363 0.225127 192.496 0.0513153 191.62 0.0500031H126.39L100.39 37.73H173.28L124.7 113.14H156.08L52.08 237.14L89.08 153.73L51.9801 153.58L60.6001 132.14H17.2801C13.6201 132.14 11.2101 135.14 11.2101 138.8L11.2801 165.35C11.2801 190.6 35.9301 216.83 53.4801 232.41C53.7201 232.63 51.4801 237.19 51.7601 237.41C52.0401 237.63 54.7101 233.49 54.9501 233.69C69.7801 246.26 77.3101 250.32 98.2301 250.32H99.1801C139.18 227.32 89.6301 127.8 198.29 21.82H198.28Z" fill="#E8157C"/>
<path d="M51.8999 238.36L56.8999 224.79L79.8999 161.34L44.2699 161.81L52.5399 139.45L16.9399 139.98C16.9399 140.18 16.9399 140.85 16.9399 141.06V169.95C16.9519 183.126 20.04 196.118 25.9583 207.89C31.8766 219.663 40.4617 229.891 51.0299 237.76C51.1599 237.86 51.78 238.26 51.92 238.36H51.8999Z" fill="white"/>
<path d="M125.36 169.45C129.37 159.721 135.533 151.028 143.386 144.023C151.239 137.019 160.578 131.886 170.7 129.01V20.6199C170.692 18.8568 169.99 17.1679 168.745 15.9193C167.5 14.6707 165.813 13.9631 164.05 13.95H104.05L81.58 49.59H150.37L101.91 124.82H133.73L52.28 237.53L72.14 161.45H36.34L45.02 139.77H6.73999C4.97595 139.78 3.28702 140.485 2.0387 141.732C0.790377 142.978 0.0831213 144.666 0.0700073 146.43L0 175.65C1.94 213.14 34.4 244.36 85.76 253.78C128.92 257.85 121.17 249.49 135.07 239.55C127.353 229.81 122.383 218.182 120.676 205.873C118.969 193.564 120.586 181.023 125.36 169.55V169.45Z" fill="#26B6EA"/>
<path d="M181.9 17.45V129.15C135.53 146.24 119.5 199.63 150.11 239.59C148.669 240.63 147.174 241.591 145.63 242.47C144.4 243.23 143.38 243.92 142.63 244.31C138.708 246.425 134.622 248.217 130.41 249.67C129 250.16 127.57 250.62 126.12 251.03C125.29 251.27 124.46 251.5 123.63 251.71C123.22 251.82 122.79 251.93 122.38 252.02C121.11 252.33 119.84 252.61 118.56 252.84C118.01 252.95 117.45 253.06 116.88 253.14L115.98 253.29C115.55 253.37 115.12 253.43 114.69 253.49C114.26 253.55 114.03 253.59 113.69 253.62L112.8 253.74L111.3 253.9C109.02 254.133 106.717 254.273 104.39 254.32H102.72H101.78C101.13 254.32 100.49 254.32 99.8499 254.32C99.5099 254.32 99.1766 254.32 98.8499 254.32H98.0999L96.7899 254.25H96.2099C95.7999 254.25 95.3899 254.25 94.9799 254.16H94.8899C94.3099 254.16 93.7299 254.07 93.1599 254C92.5899 253.93 91.9999 253.88 91.4299 253.81L90.4299 253.68C90.0299 253.62 89.6199 253.57 89.2299 253.5C89.0452 253.484 88.8615 253.457 88.6799 253.42C88.3299 253.42 87.9899 253.32 87.6799 253.25L86.5499 253.05C85.4399 252.86 84.3499 252.63 83.2599 252.38L82.0099 252.09L81.3599 251.93L80.1399 251.62L79.8399 251.53C79.3599 251.41 78.8899 251.28 78.4099 251.13C77.3499 250.83 76.2999 250.5 75.2499 250.13L73.6899 249.6C70.9653 248.65 68.2947 247.551 65.6899 246.31C64.8199 245.9 63.9699 245.47 63.1199 245.04C61.1799 244.04 59.2899 242.97 57.4499 241.83L56.0699 240.96C54.6999 240.09 53.1799 239.33 51.8799 238.37L51.4499 238.06C50.6499 237.47 51.7299 238.44 51.7299 238.44L147.22 117.96H114.28L162.6 42.96H91.2799L111.98 10.96L114.24 7.45996H171.76C174.42 7.46995 176.971 8.52099 178.866 10.3881C180.761 12.2552 181.85 14.79 181.9 17.45Z" fill="white"/>
<path d="M51.9698 238.45L56.9698 224.89L79.9698 161.11H44.2798L52.2798 139.73H17.0498C17.0498 139.94 17.0498 140.13 17.0498 140.35V169.21C17.0579 182.497 20.1362 195.603 26.0444 207.504C31.9525 219.405 40.5308 229.781 51.1098 237.82C51.2398 237.92 51.8598 238.32 51.9898 238.42L51.9698 238.45Z" fill="white"/>
<path fill-rule="evenodd" clip-rule="evenodd" d="M230.93 218.45C227.253 222.104 222.733 224.795 217.768 226.286C212.803 227.777 207.548 228.022 202.466 227C197.384 225.977 192.633 223.717 188.632 220.421C184.631 217.126 181.504 212.895 179.527 208.103C177.55 203.311 176.784 198.106 177.297 192.947C177.81 187.789 179.586 182.837 182.468 178.528C185.35 174.22 189.25 170.688 193.821 168.244C198.393 165.801 203.497 164.522 208.68 164.52C210.753 164.517 212.82 164.725 214.85 165.14C221.996 166.555 228.432 170.398 233.067 176.017C237.702 181.636 240.251 188.686 240.28 195.97C240.343 200.156 239.551 204.311 237.952 208.18C236.353 212.048 233.98 215.55 230.98 218.47L230.93 218.45ZM250.28 154.25C242.026 145.99 231.506 140.365 220.053 138.088C208.6 135.811 196.728 136.983 185.942 141.457C175.155 145.931 165.939 153.506 159.461 163.221C152.982 172.936 149.532 184.356 149.547 196.033C149.562 207.71 153.043 219.121 159.547 228.819C166.052 238.517 175.288 246.067 186.086 250.512C196.884 254.958 208.758 256.099 220.206 253.792C231.653 251.484 242.158 245.832 250.39 237.55C255.935 232.151 260.319 225.677 263.271 218.523C266.224 211.369 267.683 203.688 267.56 195.95C267.583 188.202 266.067 180.526 263.1 173.368C260.134 166.21 255.777 159.711 250.28 154.25Z" fill="white"/>
</svg>
