<svg xmlns="http://www.w3.org/2000/svg" shape-rendering="geometricPrecision" text-rendering="geometricPrecision" image-rendering="optimizeQuality" fill-rule="evenodd" clip-rule="evenodd" viewBox="0 0 512 182.939"><path d="M81.007 16.395c0 9.054-7.338 16.392-16.39 16.392-9.057 0-16.391-7.338-16.391-16.392C48.226 7.341 55.56 0 64.617 0c9.052 0 16.39 7.341 16.39 16.395zm168.166 0c0 9.054-7.327 16.392-16.388 16.392-9.052 0-16.385-7.338-16.385-16.392C216.4 7.341 223.733 0 232.785 0c9.061 0 16.388 7.341 16.388 16.395zm94.185 0c0 9.054-7.332 16.392-16.388 16.392-9.052 0-16.391-7.338-16.391-16.392C310.579 7.341 317.918 0 326.97 0c9.056 0 16.388 7.341 16.388 16.395zm94.235 0c0 9.054-7.338 16.392-16.385 16.392-9.057 0-16.395-7.338-16.395-16.392C404.813 7.341 412.151 0 421.208 0c9.047 0 16.385 7.341 16.385 16.395zM0 61.31c0-6.331 5.025-11.54 11.529-11.54h2.42c5.023 0 8.371 2.607 10.605 6.14l39.425 61.745 39.619-61.929c2.413-3.903 5.767-5.956 10.409-5.956h2.42c6.511 0 11.536 5.209 11.536 11.54v108.977c0 6.331-5.025 11.349-11.536 11.349-6.135 0-11.346-5.203-11.346-11.349V92.179l-31.798 47.795c-2.428 3.715-5.398 5.956-9.676 5.956-4.094 0-7.062-2.241-9.492-5.956L22.504 92.551v77.926c0 6.331-5.019 11.159-11.35 11.159C4.837 181.636 0 176.808 0 170.477V61.31zm490.055 63.414c-1.49-14.513-10.044-25.849-24.926-25.849-13.768 0-23.433 10.598-25.481 25.849h50.407zm-22.317 58.215c-28.462 0-50.407-20.648-50.407-50.958v-.373c0-28.078 19.897-51.149 47.984-51.149 31.248 0 46.685 25.673 46.685 48.359 0 6.326-4.839 10.781-10.602 10.781h-61.561c2.414 16 13.763 24.924 28.262 24.924 9.496 0 16.933-3.342 23.25-8.549 1.674-1.312 3.166-2.048 5.773-2.048 5.02 0 8.921 3.903 8.921 9.108 0 2.788-1.298 5.213-2.976 6.88-8.924 8.005-20.081 13.025-35.329 13.025zM233.349 65.211c-.555-1.299-.925-2.972-.925-4.462 0-6.324 5.391-11.163 11.711-11.163 5.586 0 9.861 3.535 11.345 8.372l29.953 89.462 29.38-89.092c1.857-5.39 5.767-9.113 11.528-9.113h1.679c5.765 0 9.861 3.723 11.535 9.113l29.379 89.092 29.947-89.653c1.676-4.646 5.578-8.181 11.161-8.181 6.136 0 11.345 4.839 11.345 10.979 0 1.483-.561 3.347-1.119 4.646L381.773 173.08c-2.048 5.765-6.324 9.48-11.905 9.48h-2.233c-5.586 0-9.677-3.526-11.719-9.48l-29.014-84.993-29.016 84.993c-2.048 5.954-6.319 9.48-11.903 9.48h-2.228c-5.579 0-9.671-3.526-11.908-9.48L233.349 65.211zm-18.569 59.513c-1.487-14.513-10.046-25.849-24.928-25.849-13.766 0-23.435 10.598-25.479 25.849h50.407zm-22.319 58.215c-28.463 0-50.407-20.648-50.407-50.958v-.373c0-28.078 19.901-51.149 47.986-51.149 31.248 0 46.685 25.673 46.685 48.359 0 6.326-4.841 10.781-10.603 10.781h-61.563c2.417 16 13.764 24.924 28.267 24.924 9.487 0 16.922-3.342 23.253-8.549 1.671-1.312 3.167-2.048 5.763-2.048 5.025 0 8.933 3.903 8.933 9.108 0 2.788-1.305 5.213-2.983 6.88-8.92 8.005-20.081 13.025-35.331 13.025z"/></svg>